<svg xmlns="http://www.w3.org/2000/svg" width="512" height="512" viewBox="0 0 512 512"><rect width="512" height="512" rx="115" fill="#F5F5F4"/><g transform="translate(150.12 403.69) scale(0.43775)"><path fill="#1C1917" d="M436-414.50L166.50-15.50L146-37L281-37Q307.50-37 325.75-43.50Q344-50 359.75-67.75Q375.50-85.50 395-119L416.50-157Q422-166 428.75-169Q435.50-172 443-170.50Q451.50-169 455-163Q458.50-157 456.50-146.50L427-8.50Q424.50 3.50 419.25 8.50Q414 13.50 406 13.50Q396 13.50 384.75 6.75Q373.50 0 351.50 0L57.50 0Q40.50 0 33.50-4.75Q26.50-9.50 26.50-18.50Q26.50-25 29.75-33Q33-41 41-52.50L309.50-450L332-430L195-430Q172.50-430 156.50-424.25Q140.50-418.50 127-403.75Q113.50-389 98.50-361.50L78-323.50Q73-315 66.75-312Q60.50-309 52-311Q44-313 40.25-319.50Q36.50-326 38.50-336.50L63-457Q65.50-469 71-474.25Q76.50-479.50 85-479.50Q95-479.50 106-473.25Q117-467 138.50-467L419-467Q436-467 443-462.25Q450-457.50 450-448.50Q450-442 447-434Q444-426 436-414.50"/><path fill="#F97316" d="M300.24-615.76L240.74-615.76L383.24-515.76Q391.74-509.76 399.74-509.51Q407.74-509.26 413.24-513.26Q417.24-516.76 417.49-523.51Q417.74-530.26 410.74-538.26L310.24-665.26Q300.74-676.76 291.74-682.51Q282.74-688.26 270.24-688.26Q257.74-688.26 249.24-682.51Q240.74-676.76 231.24-665.26L130.74-538.26Q123.74-530.26 123.74-523.51Q123.74-516.76 128.24-513.26Q133.24-509.26 141.24-509.51Q149.24-509.76 157.74-515.76"/></g></svg>
